<svg xmlns="http://www.w3.org/2000/svg" viewBox="0 0 256 256"><path fill="currentColor" fill-rule="evenodd" d="M 142 146 L 140 148 L 145 156 L 141 160 L 141 162 L 149 165 L 147 163 L 148 159 L 154 165 L 151 170 L 155 169 L 157 167 L 157 164 L 152 159 L 152 157 L 153 156 L 156 160 L 157 153 L 150 153 L 147 150 L 145 145 Z M 110 145 L 104 153 L 97 153 L 98 160 L 101 156 L 102 157 L 102 159 L 97 164 L 97 167 L 99 169 L 103 170 L 100 165 L 106 159 L 107 163 L 105 165 L 113 162 L 113 160 L 109 156 L 113 150 L 113 148 Z M 127 103 L 110 141 L 117 148 L 113 157 L 116 159 L 118 153 L 120 153 L 117 162 L 120 165 L 122 159 L 122 167 L 127 172 L 132 167 L 133 163 L 134 165 L 137 162 L 135 156 L 136 155 L 138 159 L 141 157 L 137 148 L 143 142 Z M 132 159 L 133 160 L 132 164 L 131 163 Z M 131 156 L 132 157 L 131 160 L 130 159 Z M 123 156 L 124 157 L 123 160 L 122 159 Z M 135 152 L 136 153 L 135 156 L 134 155 Z M 133 152 L 134 151 L 135 152 L 134 153 Z M 119 152 L 120 151 L 121 152 L 120 153 Z M 135 95 L 129 100 L 129 102 L 133 109 L 139 102 L 138 98 Z M 119 95 L 116 98 L 115 102 L 122 108 L 125 100 Z M 133 91 L 140 97 L 141 100 L 146 97 L 151 99 L 152 103 L 156 99 L 155 97 L 150 94 L 151 93 L 149 90 L 136 90 Z M 146 97 L 147 96 L 148 97 L 147 98 Z M 147 96 L 148 95 L 149 96 L 148 97 Z M 148 95 L 149 94 L 151 95 L 150 96 Z M 146 91 L 147 94 L 145 95 L 144 93 Z M 98 99 L 102 103 L 102 101 L 108 97 L 113 100 L 114 97 L 121 91 L 118 90 L 105 90 L 103 93 L 104 94 L 99 97 Z M 106 97 L 107 96 L 108 97 L 107 98 Z M 105 96 L 106 95 L 107 96 L 106 97 Z M 103 95 L 104 94 L 106 95 L 105 96 Z M 107 92 L 108 91 L 110 94 L 108 95 Z M 144 136 L 151 132 L 144 122 L 148 117 L 155 131 L 155 122 L 169 139 L 161 120 L 174 140 L 182 137 L 167 116 L 186 136 L 194 131 L 175 113 L 198 129 L 206 122 L 175 104 L 208 118 L 216 110 L 178 97 L 215 105 L 225 97 L 172 89 L 227 92 L 234 83 L 154 82 L 165 102 L 157 110 L 140 105 L 134 111 Z M 159 120 L 160 119 L 161 120 L 160 121 Z M 143 120 L 144 119 L 145 120 L 144 121 Z M 142 118 L 143 117 L 144 119 L 143 120 Z M 143 114 L 144 115 L 142 118 L 141 115 Z M 170 111 L 172 110 L 175 113 L 173 114 Z M 172 104 L 173 103 L 174 104 L 173 105 Z M 173 97 L 174 96 L 178 97 L 177 98 Z M 20 83 L 27 92 L 83 90 L 29 97 L 35 105 L 76 97 L 38 110 L 46 118 L 80 104 L 48 122 L 56 129 L 79 113 L 60 131 L 68 136 L 87 116 L 73 139 L 80 140 L 92 122 L 85 139 L 99 122 L 99 131 L 106 117 L 110 122 L 102 132 L 109 136 L 120 113 L 114 105 L 91 106 L 90 95 L 100 82 Z M 99 121 L 100 120 L 101 121 L 100 122 Z M 92 121 L 93 120 L 94 122 L 93 123 Z M 109 120 L 110 119 L 111 120 L 110 121 Z M 93 120 L 94 119 L 95 120 L 94 121 Z M 112 114 L 113 118 L 111 120 L 110 118 Z M 82 111 L 83 112 L 80 114 L 79 113 Z M 82 111 L 83 110 L 84 111 L 83 112 Z M 80 104 L 81 103 L 82 104 L 81 105 Z M 77 97 L 78 96 L 81 97 L 80 98 Z"/></svg>